<?xml version="1.0" encoding="UTF-8"?>
<svg xmlns="http://www.w3.org/2000/svg" xmlns:xlink="http://www.w3.org/1999/xlink" width="2300" height="2301" viewBox="0 0 2300 2301">
  <defs>
    <clipPath id="clip-0">
      <path clip-rule="nonzero" d="M 0 0.710938 L 2300 0.710938 L 2300 2300.710938 L 0 2300.710938 Z M 0 0.710938 "/>
    </clipPath>
  </defs>
  <path fill-rule="evenodd" fill="rgb(100%, 85.546875%, 0%)" fill-opacity="1" d="M 1320.988281 1946.773438 C 1323.160156 1953.953125 1295.929688 1933.171875 1293.210938 1931.28125 C 1276.449219 1919.605469 1260.058594 1907.382812 1243.660156 1895.222656 C 1195.058594 1859.183594 1147.511719 1821.625 1100.300781 1783.789062 C 1063.449219 1754.25 1026.96875 1724.261719 990.871094 1693.816406 C 959.644531 1667.484375 928.636719 1640.84375 898.066406 1613.757812 C 878.820312 1596.707031 859.820312 1579.371094 841.191406 1561.675781 C 781.859375 1505.335938 626.085938 1370.035156 681.222656 1268.558594 C 704.15625 1226.359375 786.347656 1261.230469 858.476562 1321.46875 C 867.054688 1328.628906 1080.261719 1530.039062 1089.371094 1514.675781 C 1094.949219 1505.261719 1085.308594 1482.675781 1079.421875 1477.660156 C 1052.789062 1455 718.875 1092.898438 676.289062 1036.878906 C 639.546875 988.539062 593.992188 914.390625 660.765625 853.929688 C 697.101562 821.03125 747.152344 831.328125 780.160156 862.410156 C 880.84375 957.191406 999.128906 1091.601562 1085.058594 1184.570312 C 1115.601562 1217.609375 1190.371094 1294.898438 1199.53125 1284.429688 C 1209.300781 1273.261719 1191.378906 1246.359375 1185.769531 1237.269531 C 1161 1197.148438 1123.78125 1166.109375 1093.070312 1130.738281 C 1048.421875 1079.308594 999.648438 1026.890625 950.089844 971.558594 C 889.074219 903.460938 826.855469 830.949219 769.609375 750.449219 C 735.484375 702.460938 710.65625 596.871094 783.757812 563.96875 C 843.433594 537.109375 914.230469 593.570312 952.628906 633.148438 C 957.515625 638.191406 962.785156 642.96875 967.359375 648.441406 C 1055.671875 754 1167.480469 880.121094 1258.058594 996.128906 C 1280.351562 1024.679688 1336.71875 1096.890625 1354.488281 1082.089844 C 1377.140625 1063.230469 1324.910156 998.53125 1299.5 963.789062 C 1256.03125 904.351562 1116.199219 755.609375 1061.910156 642.410156 C 1026.921875 569.460938 1047.671875 518 1065.890625 502.371094 C 1137.308594 441.089844 1230.449219 549.960938 1269.789062 597.53125 C 1365.46875 713.238281 1450.269531 838.789062 1537.789062 960.679688 C 1575.871094 1013.71875 1623.449219 1099.558594 1686.128906 1127.511719 C 1721.109375 1143.101562 1737.441406 1109.199219 1738.21875 1079.730469 C 1740.171875 1005.628906 1732.800781 944.980469 1775.988281 878.699219 C 1838.941406 782.078125 2008.871094 718.019531 2084.941406 840.109375 C 2144.921875 936.398438 1993.351562 1022.199219 1997.378906 1117.960938 C 2004.929688 1297.71875 2071.359375 1463 2015.460938 1644.734375 C 1953.261719 1846.996094 1701.300781 1989.277344 1495.960938 1978.53125 C 1405.300781 1973.78125 1321.03125 1936.199219 1241.429688 1895.417969 "/>
  <path fill-rule="evenodd" fill="rgb(72.459412%, 72.459412%, 72.459412%)" fill-opacity="1" d="M 1479.800781 326.359375 C 1529.628906 351 1577.5 402.628906 1619.101562 463.71875 C 1683.550781 558.378906 1732.390625 676.25 1746.191406 760.429688 C 1748.628906 775.269531 1762.648438 785.339844 1777.488281 782.910156 C 1792.328125 780.46875 1802.398438 766.449219 1799.960938 751.609375 C 1785.160156 661.289062 1733.289062 534.609375 1664.140625 433.058594 C 1616.660156 363.328125 1560.828125 305.640625 1503.960938 277.511719 C 1490.480469 270.851562 1474.128906 276.378906 1467.460938 289.859375 C 1460.800781 303.339844 1466.328125 319.691406 1479.800781 326.359375 "/>
  <path fill-rule="evenodd" fill="rgb(72.459412%, 72.459412%, 72.459412%)" fill-opacity="1" d="M 1385.199219 482.121094 C 1424.109375 499.320312 1461.78125 534.921875 1494.660156 576.789062 C 1545.628906 641.691406 1584.851562 722.078125 1596.390625 779.371094 C 1599.359375 794.109375 1613.730469 803.671875 1628.46875 800.710938 C 1643.21875 797.738281 1652.769531 783.359375 1649.808594 768.621094 C 1636.988281 704.949219 1594.148438 615.238281 1537.511719 543.128906 C 1498.648438 493.648438 1453.230469 452.621094 1407.230469 432.28125 C 1393.480469 426.199219 1377.378906 432.429688 1371.300781 446.179688 C 1365.210938 459.929688 1371.441406 476.03125 1385.199219 482.121094 "/>
  <path fill-rule="evenodd" fill="rgb(72.459412%, 72.459412%, 72.459412%)" fill-opacity="1" d="M 243.550781 1547.96875 C 264.164062 1599.601562 311.828125 1651.410156 369.421875 1697.726562 C 458.660156 1769.496094 572.265625 1827.542969 655.082031 1847.992188 C 669.691406 1851.597656 678.609375 1866.375 675.015625 1880.972656 C 671.40625 1895.570312 656.632812 1904.496094 642.03125 1900.894531 C 553.179688 1878.957031 431.015625 1817.191406 335.273438 1740.191406 C 269.542969 1687.328125 216.464844 1627.09375 192.945312 1568.164062 C 187.371094 1554.199219 194.183594 1538.335938 208.148438 1532.765625 C 222.113281 1527.1875 237.980469 1534 243.550781 1547.96875 "/>
  <path fill-rule="evenodd" fill="rgb(72.459412%, 72.459412%, 72.459412%)" fill-opacity="1" d="M 406.332031 1466.027344 C 420.394531 1506.1875 452.890625 1546.5625 492.007812 1582.660156 C 552.652344 1638.625 629.683594 1684.109375 685.878906 1700.160156 C 700.335938 1704.289062 708.722656 1719.386719 704.59375 1733.84375 C 700.460938 1748.304688 685.371094 1756.6875 670.910156 1752.558594 C 608.46875 1734.726562 522.445312 1684.894531 455.054688 1622.707031 C 408.816406 1580.039062 371.527344 1531.503906 354.902344 1484.035156 C 349.9375 1469.847656 357.421875 1454.289062 371.613281 1449.316406 C 385.808594 1444.347656 401.367188 1451.835938 406.332031 1466.027344 "/>
</svg>
